PathFileType	4	(X/Y/Z)	Kaydara	
DataRate	CameraRate	NumFrames	NumMarkers	Units	OrigDataRate	OrigDataStartFrame	OrigNumFrames	
60.00	60.00	4	74	mm	60.00	408	164	
Frame#	Time	N_lasi			N_rasi			N_rpsi			N_lpsi			N_fneck			N_bneck			N_fhead			N_rhead			N_lhead			N_rshld			N_relbtop			N_relbext			N_relblow			N_rwrext			N_rwrtop			N_rwrlow			N_lshld			N_lelbext			N_lelblow			N_lelbtop			N_lwrext			N_lwrtop			N_lwrlow			N_rtopleg			N_ltopleg			N_rkneefr			N_rkneebk			N_rkneeis			N_lkneefr			N_lknssbk			N_lkneeis			N_rankfr			N_rankis			N_rankbk			N_lankfr			N_lankbk			N_lankis			D_lasi			D_rasi			D_rpsi			D_lpsi			D_fneck			D_bneck			D_fhead			D_rhead			D_lhead			D_rshld			D_relbtop			D_relbext			D_relblow			D_rwrext			D_rwrtop			D_rwrlow			D_lshld			D_lelbext			D_lelblow			D_lelbtop			D_lwrext			D_lwrtop			D_lwrlow			D_rtopleg			D_ltopleg			D_rkneefr			D_rkneebk			D_rkneeis			D_lkneefr			D_lknssbk			D_lkneeis			D_rankfr			D_rankis			D_rankbk			D_lankfr			D_lankbk			D_lankis			
		X1	Y1	Z1	X2	Y2	Z2	X3	Y3	Z3	X4	Y4	Z4	X5	Y5	Z5	X6	Y6	Z6	X7	Y7	Z7	X8	Y8	Z8	X9	Y9	Z9	X10	Y10	Z10	X11	Y11	Z11	X12	Y12	Z12	X13	Y13	Z13	X14	Y14	Z14	X15	Y15	Z15	X16	Y16	Z16	X17	Y17	Z17	X18	Y18	Z18	X19	Y19	Z19	X20	Y20	Z20	X21	Y21	Z21	X22	Y22	Z22	X23	Y23	Z23	X24	Y24	Z24	X25	Y25	Z25	X26	Y26	Z26	X27	Y27	Z27	X28	Y28	Z28	X29	Y29	Z29	X30	Y30	Z30	X31	Y31	Z31	X32	Y32	Z32	X33	Y33	Z33	X34	Y34	Z34	X35	Y35	Z35	X36	Y36	Z36	X37	Y37	Z37	X38	Y38	Z38	X39	Y39	Z39	X40	Y40	Z40	X41	Y41	Z41	X42	Y42	Z42	X43	Y43	Z43	X44	Y44	Z44	X45	Y45	Z45	X46	Y46	Z46	X47	Y47	Z47	X48	Y48	Z48	X49	Y49	Z49	X50	Y50	Z50	X51	Y51	Z51	X52	Y52	Z52	X53	Y53	Z53	X54	Y54	Z54	X55	Y55	Z55	X56	Y56	Z56	X57	Y57	Z57	X58	Y58	Z58	X59	Y59	Z59	X60	Y60	Z60	X61	Y61	Z61	X62	Y62	Z62	X63	Y63	Z63	X64	Y64	Z64	X65	Y65	Z65	X66	Y66	Z66	X67	Y67	Z67	X68	Y68	Z68	X69	Y69	Z69	X70	Y70	Z70	X71	Y71	Z71	X72	Y72	Z72	X73	Y73	Z73	X74	Y74	Z74	

21	6.783	102.03804	1100.35782	1201.82350	229.76034	1115.58617	1421.39404	7.67493	1181.14960	1584.43115	-172.58669	1169.62753	1288.27606	-16.08251	1537.78946	1274.74075	32.00037	1636.63147	1373.57788	167.34880	1671.15540	1160.31631	121.18560	1737.58850	1345.46021	17.70679	1713.16406	1232.12982	192.74872	1495.97977	1562.70691	213.35377	1205.40077	1718.52463	166.67959	1165.03784	1647.94693	264.24149	1205.16541	1643.33939	317.76934	909.43596	1676.00647	327.89761	916.18034	1629.39484	286.51941	911.12457	1606.66000	-157.55982	1488.26721	1200.49835	-193.84190	1149.27887	1249.22234	-203.54717	1157.87056	1143.25912	-267.56231	1165.33150	1201.28067	-217.58602	861.44417	1173.10249	-173.52571	855.15617	1154.32343	-152.01723	863.69537	1203.10837	156.28633	964.12109	1575.91660	-145.45116	1009.23256	1209.50958	76.98624	503.90160	1520.61081	-42.43329	537.13741	1588.26447	-31.28847	505.11658	1441.16394	158.58869	546.63509	1153.71544	26.95063	547.36946	1184.18304	112.22851	534.29592	1295.14374	-37.42984	127.01431	1628.81821	-59.62872	127.81585	1550.44312	-132.24932	123.16193	1597.83249	147.42201	187.66928	1190.95421	68.98136	178.51765	1216.28174	143.52278	190.50787	1267.35458	-933.57635	1049.47884	69.74591	-1152.91603	1076.04584	-113.01702	-975.65102	1160.47714	-234.54912	-814.94118	1133.97583	-90.80444	-1014.49181	1542.81540	23.54810	-955.94360	1624.99329	-76.72165	-1029.20898	1701.91589	152.13333	-1060.02739	1756.13113	-21.14398	-911.71547	1736.00647	22.82393	-1156.10153	1506.44928	-156.36491	-1182.98935	1186.07071	-271.95263	-1153.32077	1165.72334	-204.30679	-1251.92886	1205.12405	-221.37869	-1294.36356	956.21941	-268.91323	-1322.16507	958.37708	-217.37183	-1272.74605	953.36182	-193.81475	-768.17131	1496.71066	29.77500	-800.99831	1164.05823	23.40343	-727.47108	1198.20320	81.47330	-720.75569	1157.06810	11.23772	-772.66212	956.19904	162.47061	-799.38560	977.94632	190.77477	-843.51715	984.48502	164.25549	-1148.75511	1025.10597	-214.24982	-809.50371	1004.15565	-1.73229	-1278.34480	508.50849	-64.33005	-1253.31360	562.94300	-158.21375	-1149.54529	525.56934	-97.22647	-1020.10910	478.20549	1.20211	-924.32045	491.39492	-66.01515	-1054.43253	481.78871	-94.39879	-1141.49956	258.81973	-301.67332	-1077.03819	282.62707	-288.45930	-1115.24246	312.49069	-357.43725	-1037.17949	142.79059	-79.49619	-975.89104	132.70828	-124.13454	-1058.75870	151.25276	-143.26393 
22	6.800	111.04573	1096.54053	1192.76566	240.92829	1112.34947	1412.17010	22.21374	1178.51822	1578.42026	-162.40316	1166.89995	1283.80081	-4.41344	1535.06027	1266.35017	43.66944	1633.90228	1365.18753	175.87523	1668.02383	1150.10445	132.27205	1734.62097	1335.91324	26.96192	1710.40894	1223.90968	207.94146	1494.06403	1551.75735	233.42228	1202.76154	1703.12500	186.34653	1163.16048	1633.45474	283.50683	1204.04976	1629.75433	341.77853	909.05731	1657.62482	350.87334	916.89835	1610.93750	309.08442	911.11374	1588.93143	-148.44640	1484.44168	1195.93323	-187.91897	1146.33163	1245.71899	-196.74109	1154.64630	1139.42772	-260.84187	1162.80472	1197.35306	-213.75280	858.47755	1170.71037	-169.10553	851.47560	1152.94937	-148.82335	860.33447	1202.50496	169.65803	962.33086	1566.98090	-135.88866	1006.86348	1205.16602	80.12356	502.42130	1516.30020	-36.91344	537.69615	1584.80286	-26.92472	504.93568	1437.55356	167.50296	544.97238	1153.26180	35.90320	541.86329	1183.93814	122.70778	528.45627	1293.98209	-36.50903	127.60043	1627.92053	-58.73107	128.48494	1549.67468	-131.26137	124.67885	1597.36252	178.94974	187.71379	1168.47069	102.28086	171.96947	1195.16541	177.37057	185.72706	1244.59503	-935.72701	1050.02365	79.58555	-1160.30777	1077.50748	-96.72182	-986.64703	1161.60851	-223.51240	-822.01012	1134.94987	-84.21074	-1018.90526	1544.41833	33.48851	-962.13020	1626.04111	-67.93263	-1031.76437	1704.28696	161.50970	-1065.30708	1757.59079	-11.74848	-916.28830	1737.78015	30.04025	-1163.72337	1507.92908	-144.59567	-1187.10464	1188.93379	-263.60617	-1158.76381	1167.80190	-195.80259	-1257.60422	1206.77002	-214.45072	-1295.92773	958.21075	-267.50628	-1325.22781	958.99651	-216.74231	-1276.69838	954.04030	-191.69880	-772.67181	1498.23318	35.72450	-806.66832	1166.12923	35.25045	-731.77727	1200.62157	91.06028	-726.64970	1157.61169	21.84197	-780.55031	962.13188	179.47500	-805.90927	985.35881	207.78193	-850.36224	992.26959	182.42521	-1159.79477	1026.84448	-197.97924	-813.94035	1004.87885	4.09937	-1285.21866	512.57099	-34.91058	-1263.45665	564.23752	-130.70975	-1157.89391	526.77288	-74.23665	-1021.05255	477.58327	4.95047	-926.38100	492.19559	-63.61827	-1056.80527	482.16583	-90.32371	-1167.65610	252.95238	-270.10349	-1101.28098	274.68811	-260.67892	-1142.53540	303.45598	-329.03870	-1037.12479	142.87943	-78.57689	-976.29372	133.46317	-123.74865	-1059.30138	151.81402	-142.05974 
23	6.817	120.36188	1092.35092	1182.87216	252.88723	1108.82118	1401.31927	36.95655	1175.63210	1571.37253	-152.33912	1164.36890	1279.29123	6.77653	1531.97418	1257.48680	54.85941	1630.81619	1356.32416	184.11180	1664.89334	1139.71634	142.73554	1731.41632	1325.64026	36.72576	1707.06039	1215.25513	222.52338	1492.06345	1540.43335	253.48661	1200.08652	1689.96979	205.77576	1161.19469	1619.53171	302.30093	1202.79320	1615.06378	364.65939	908.46138	1637.54303	372.51919	917.82906	1591.09558	330.41451	911.03668	1569.97787	-139.29270	1480.31525	1190.32677	-180.75741	1142.20016	1240.48996	-188.74790	1150.85495	1134.45518	-253.47351	1159.64554	1191.68358	-208.91712	855.13023	1166.29799	-163.80932	847.10556	1150.47569	-145.45514	856.53671	1200.76073	183.25497	960.66605	1557.70111	-124.68328	1004.20853	1199.25125	88.34647	501.48170	1518.55347	-30.75354	538.14507	1581.12045	-21.21963	504.24179	1434.48944	176.84649	543.20503	1152.13036	45.15032	536.39000	1183.59634	133.48193	523.11913	1293.28262	-35.30694	128.35968	1627.06787	-57.87804	129.19208	1548.76083	-130.18501	126.60914	1596.57013	207.11452	190.05617	1146.34178	132.48770	168.15735	1174.98291	208.58372	183.77510	1222.21214	-938.17856	1049.99290	89.58401	-1167.53525	1078.60947	-80.67572	-997.09793	1162.52541	-212.51547	-829.21715	1136.00266	-77.70178	-1023.59795	1545.76111	43.85210	-968.50922	1626.69983	-59.23482	-1034.15833	1706.52527	170.77778	-1070.45448	1758.68652	-2.28578	-920.89340	1739.04221	37.28868	-1171.33789	1508.95691	-132.53363	-1191.76842	1191.61514	-255.72392	-1164.49791	1169.63058	-187.39546	-1263.38425	1208.15208	-207.01611	-1297.98737	960.23056	-265.19455	-1328.56644	959.63440	-215.16132	-1280.51529	954.71298	-189.15894	-777.45064	1499.45801	41.76503	-812.01645	1167.99294	46.86592	-735.82886	1202.74719	100.43827	-732.25479	1157.96768	32.23516	-787.75803	967.82898	195.84057	-811.78787	992.38487	224.27050	-856.68884	999.84978	199.85924	-1170.50575	1028.10997	-181.87428	-818.77808	1005.27016	9.75482	-1290.08972	516.03748	-6.00766	-1271.72775	564.45232	-103.94951	-1164.30130	527.13085	-51.47500	-1022.26860	477.01294	9.07453	-928.58139	492.89669	-60.79813	-1059.17160	482.33513	-85.80317	-1192.59811	245.75077	-236.57377	-1125.92323	264.50634	-231.30922	-1168.33664	292.59777	-298.25129	-1036.51535	142.72189	-78.02050	-976.50215	134.25558	-123.44549	-1058.81386	152.30916	-141.47993 
24	6.833	129.86667	1088.01735	1172.64618	264.83076	1105.22751	1390.08667	51.46029	1172.71812	1563.45535	-141.01938	1160.09308	1273.28171	17.68251	1528.77838	1247.70317	65.76540	1627.62039	1346.54037	191.85873	1661.72012	1128.25447	153.00442	1728.25089	1315.13611	45.33796	1703.91052	1205.83626	236.49017	1489.80103	1528.46024	272.63138	1197.35710	1675.98495	224.09355	1159.01016	1605.06165	319.79174	1201.15356	1600.10818	386.26472	908.06396	1617.57996	393.19244	918.93829	1570.18265	350.72319	911.10840	1549.45755	-130.29014	1475.83771	1183.77762	-172.91584	1138.14171	1234.60236	-179.83706	1146.53114	1128.31696	-245.22078	1155.99991	1184.88342	-203.31793	851.32965	1160.16113	-157.28347	842.48711	1146.61469	-141.43297	852.32338	1197.36771	196.71961	958.72032	1548.61252	-113.84884	1000.24681	1193.28705	93.43490	498.14236	1510.26413	-23.42292	538.60390	1576.47675	-14.34213	503.68755	1430.02563	186.85753	542.74689	1149.55315	55.52361	531.06350	1182.91145	145.60100	518.25283	1291.18240	-34.40690	130.01343	1626.45462	-56.39578	130.04725	1547.97134	-128.65443	128.66159	1595.91217	230.53148	193.58706	1126.07483	158.27696	166.94017	1156.56830	235.44977	184.50935	1201.39862	-940.10536	1049.84894	98.80189	-1174.42108	1079.15733	-64.86975	-1007.86453	1162.97874	-201.37968	-836.24054	1136.73500	-71.10982	-1027.85088	1546.74835	53.92463	-974.78500	1627.00729	-50.32773	-1036.29044	1708.59848	180.05161	-1075.64171	1759.45343	7.24531	-925.38589	1739.92111	44.35075	-1178.95393	1509.71085	-119.93237	-1197.34642	1194.22279	-247.05366	-1170.01457	1171.19057	-179.29167	-1269.14932	1209.29184	-198.59819	-1300.78705	961.80275	-261.70834	-1332.18307	960.21111	-212.57072	-1284.74594	955.65132	-185.46211	-781.83937	1500.23300	47.53565	-816.90147	1169.38820	57.94988	-739.73755	1204.50111	109.55114	-737.43881	1158.07854	42.40319	-794.31190	973.28812	211.86512	-816.92627	999.13155	240.10977	-862.15904	1007.05994	216.60484	-1180.61775	1028.99323	-166.03996	-823.11272	1005.78766	15.21202	-1293.00766	518.93898	21.95855	-1278.66844	563.55331	-78.18943	-1169.42596	526.81915	-28.96269	-1023.02528	476.17493	12.94615	-930.69443	493.52627	-57.73245	-1061.60110	482.40723	-81.15707	-1215.98022	237.28773	-201.06842	-1148.53645	253.45282	-199.65355	-1192.77756	280.31815	-265.47920	-1036.99203	143.09156	-76.47207	-976.82281	135.10641	-122.94701	-1059.32266	152.72657	-140.27884 
